<svg version="1.2" xmlns="http://www.w3.org/2000/svg" viewBox="0 0 500 141" width="500" height="141">
	<title>download (4) (1)-svg</title>
	<style>
		.s0 { fill: #404553 } 
	</style>
	<g id="Layer_2">
		<g id="Layer_1-2">
			<path id="Layer" fill-rule="evenodd" class="s0" d="m31.5 58.3c-9.6 0-14.2 1.6-14.2 4.8 0 3.2 4.6 4.6 14.2 4.6q2.6-0.1 5.1 0.2 2.6 0.3 5.1 0.8 2.5 0.6 4.9 1.5 2.4 0.8 4.7 2 2.4 0.8 4.4 2.2 2.1 1.5 3.6 3.5 1.6 2 2.5 4.4 0.9 2.3 1 4.9-0.1 2.5-1 4.9-0.9 2.5-2.4 4.5-1.5 2.1-3.6 3.6-2.1 1.5-4.5 2.3-2.4 1.2-4.9 2-2.4 0.9-5 1.4-2.5 0.6-5.2 0.8-2.6 0.3-5.2 0.2-2 0-3.9-0.1-2-0.2-4-0.5-2-0.3-3.9-0.7-1.9-0.5-3.8-1.1-1.8-0.7-3.5-1.5-1.7-0.9-3.3-1.9-1.6-1-3.1-2.1-1.5-1.2-2.9-2.5-0.6-0.5-1.1-1.1-0.5-0.6-0.8-1.3-0.3-0.7-0.5-1.4-0.2-0.8-0.2-1.6 0-0.7 0.1-1.4 0.2-0.7 0.5-1.4 0.2-0.7 0.6-1.3 0.5-0.6 1-1.1 0.5-0.6 1.1-1 0.6-0.5 1.3-0.8 0.7-0.3 1.5-0.5 0.7-0.1 1.5-0.2 0.7 0 1.4 0.2 0.7 0.1 1.4 0.4 0.7 0.2 1.3 0.6 0.6 0.4 1.1 0.9 1 0.8 2 1.4 1.1 0.7 2.2 1.2 1.1 0.5 2.3 0.9 1.2 0.4 2.4 0.7 1.2 0.4 2.4 0.7 1.2 0.3 2.4 0.5 1.3 0.2 2.5 0.3 1.3 0.1 2.5 0.1c9.3 0 14-1.6 14-4.6 0-3.1-4.7-4.8-14-4.8q-2.6 0.1-5.2-0.2-2.7-0.2-5.3-0.8-2.6-0.5-5.1-1.4-2.5-0.8-4.9-2-2.2-0.8-4.2-2.2-1.9-1.5-3.4-3.4-1.4-1.9-2.3-4.2-0.9-2.2-1.1-4.6 0.1-2.5 1-4.9 0.8-2.3 2.3-4.3 1.4-2.1 3.4-3.6 2-1.5 4.3-2.4 2.4-1.1 4.9-2 2.5-0.9 5.1-1.4 2.6-0.6 5.2-0.9 2.7-0.2 5.3-0.1 4-0.2 7.9 0.4 3.9 0.7 7.6 2 3.7 1.3 7 3.3 3.4 2 6.4 4.6 1.1 1.1 1.7 2.4 0.6 1.4 0.6 2.9 0 1.5-0.6 2.9-0.6 1.3-1.7 2.3-0.5 0.6-1.1 1.1-0.7 0.4-1.4 0.7-0.6 0.3-1.4 0.4-0.7 0.2-1.5 0.2-0.8-0.1-1.5-0.3-0.7-0.2-1.4-0.5-0.7-0.3-1.3-0.8-0.6-0.4-1.1-1-0.9-0.8-1.9-1.5-1-0.8-2.1-1.4-1.1-0.5-2.2-1-1.2-0.5-2.3-0.9-1.2-0.3-2.4-0.6-1.2-0.3-2.4-0.4-1.2-0.2-2.4-0.4-1.2-0.1-2.5-0.1zm53-30.2v19.8q1.8-1.1 3.7-1.9 1.9-0.8 3.9-1.4 2-0.5 4-0.8 2.1-0.3 4.2-0.2c4.1 0 8.2 0.9 12 2.5 3.8 1.6 7.2 3.9 10.1 6.9 3 2.9 5.3 6.4 6.8 10.2 1.6 3.8 2.5 7.9 2.5 12v23.5q0 0.8-0.1 1.6-0.2 0.8-0.5 1.5-0.3 0.8-0.7 1.4-0.5 0.7-1 1.3-0.6 0.5-1.3 0.9-0.6 0.4-1.3 0.7-0.8 0.3-1.5 0.4-0.8 0.2-1.6 0.1-0.7 0-1.5-0.1-0.7-0.2-1.4-0.4-0.8-0.3-1.4-0.7-0.6-0.4-1.2-0.9-0.6-0.6-1.1-1.2-0.5-0.7-0.9-1.4-0.4-0.8-0.6-1.6-0.2-0.8-0.2-1.6v-23.5q0.1-1.5-0.2-3-0.2-1.5-0.7-3-0.6-1.4-1.4-2.7-0.8-1.3-1.8-2.4-1.1-1.2-2.3-2.1-1.3-0.9-2.7-1.5-1.5-0.6-3-0.9-1.5-0.3-3-0.3-1.6 0-3.2 0.3-1.5 0.3-3 0.9-1.4 0.6-2.7 1.5-1.3 0.9-2.4 2.1-1.1 1.1-2 2.4-0.8 1.3-1.4 2.7-0.6 1.4-0.8 3-0.3 1.5-0.3 3v23.5q0 0.8-0.2 1.6-0.1 0.7-0.4 1.5-0.3 0.7-0.8 1.4-0.4 0.7-0.9 1.3-0.5 0.5-1.2 0.9-0.6 0.4-1.2 0.6-0.7 0.3-1.4 0.5-0.7 0.1-1.5 0.1-0.7 0-1.5-0.1-0.7-0.1-1.4-0.4-0.8-0.3-1.4-0.7-0.6-0.4-1.2-0.9-0.5-0.6-1-1.3-0.4-0.7-0.7-1.4-0.3-0.7-0.5-1.5-0.1-0.8-0.1-1.6v-70.6q0-0.8 0.1-1.6 0.2-0.8 0.5-1.5 0.3-0.7 0.7-1.4 0.4-0.6 1-1.2 0.5-0.5 1.2-1 0.6-0.4 1.3-0.7 0.7-0.3 1.5-0.5 0.8-0.1 1.5-0.1 0.8 0 1.6 0.1 0.8 0.2 1.5 0.5 0.7 0.3 1.4 0.7 0.6 0.5 1.2 1 0.5 0.6 0.9 1.2 0.5 0.7 0.8 1.4 0.3 0.7 0.4 1.5 0.2 0.8 0.2 1.6zm84.5 15.3q3.1 0 6.1 0.6 3 0.6 5.9 1.8 2.8 1.2 5.4 2.9 2.6 1.8 4.7 4 2.3 2.1 4 4.7 1.8 2.6 3 5.5 1.2 2.8 1.8 5.9 0.5 3.1 0.5 6.2 0 3.1-0.5 6.1-0.6 3.1-1.8 5.9-1.2 2.9-2.9 5.5-1.8 2.5-4.1 4.6c-2.9 3-6.3 5.4-10.1 7-3.9 1.6-8 2.4-12.1 2.4-4.1 0-8.2-0.8-12.1-2.4-3.8-1.6-7.2-4-10.1-7q-2.3-2.1-4-4.7-1.8-2.5-2.9-5.4-1.2-2.8-1.8-5.9-0.6-3-0.6-6.1c0-4.2 0.8-8.3 2.4-12.1 1.6-3.8 3.9-7.3 6.9-10.2 2.9-3 6.4-5.3 10.2-6.9 3.8-1.5 7.9-2.4 12.1-2.4zm0 15.8q-1.6 0-3.1 0.3-1.5 0.3-3 0.9-1.4 0.6-2.7 1.5-1.2 0.9-2.3 2c-1.5 1.5-2.6 3.2-3.5 5.1-0.8 1.9-1.2 4-1.2 6 0 2.1 0.4 4.2 1.2 6.1 0.9 1.9 2 3.6 3.5 5q1.1 1.1 2.4 2 1.3 0.8 2.7 1.4 1.4 0.6 2.9 0.8 1.5 0.3 3.1 0.3 1.4 0 2.9-0.3 1.4-0.3 2.8-0.9 1.3-0.6 2.5-1.4 1.2-0.8 2.3-1.9c1.4-1.4 2.6-3.1 3.4-5 0.8-1.9 1.2-3.9 1.2-6 0-2.1-0.4-4.1-1.2-6-0.8-1.9-2-3.6-3.4-5q-1.1-1.2-2.3-2.1-1.3-0.9-2.7-1.5-1.4-0.6-3-0.9-1.5-0.3-3.1-0.3zm182.7 47.3q-0.7 0.1-1.5-0.1-0.7-0.1-1.4-0.4-0.8-0.3-1.4-0.7-0.6-0.4-1.2-0.9-0.5-0.6-1-1.3-0.4-0.7-0.7-1.4-0.3-0.7-0.4-1.5-0.2-0.8-0.2-1.6v-47.3q0-0.7 0.2-1.5 0.2-0.7 0.5-1.4 0.3-0.6 0.7-1.2 0.4-0.7 0.9-1.2 0.6-0.5 1.2-1 0.6-0.4 1.3-0.7 0.7-0.4 1.5-0.5 0.8-0.2 1.5-0.2 0.8 0 1.6 0.2 0.8 0.1 1.5 0.4 0.7 0.3 1.4 0.8 0.6 0.5 1.2 1 0.5 0.6 0.9 1.2 0.5 0.7 0.8 1.4 0.2 0.7 0.4 1.4 0.2 0.8 0.2 1.5v47.1q0 0.8-0.2 1.6-0.1 0.7-0.4 1.5-0.3 0.7-0.7 1.4-0.5 0.7-1 1.3-0.6 0.5-1.2 0.9-0.7 0.5-1.4 0.7-0.7 0.3-1.5 0.4-0.8 0.2-1.6 0.1zm0-86.5q0.8 0 1.6 0.2 0.8 0.1 1.5 0.4 0.7 0.4 1.4 0.8 0.6 0.5 1.2 1 0.5 0.6 0.9 1.2 0.5 0.7 0.8 1.4 0.3 0.7 0.4 1.4 0.2 0.8 0.2 1.6 0 0.7-0.2 1.5-0.1 0.7-0.4 1.4-0.3 0.8-0.7 1.4-0.5 0.6-1 1.2-0.6 0.5-1.2 1-0.7 0.5-1.4 0.8-0.7 0.3-1.5 0.4-0.8 0.2-1.6 0.2-0.7 0-1.5-0.2-0.8-0.1-1.5-0.5-0.7-0.3-1.3-0.7-0.6-0.5-1.2-1-0.5-0.6-1-1.2-0.4-0.6-0.7-1.3-0.3-0.8-0.5-1.5-0.1-0.8-0.1-1.5 0-0.8 0.2-1.6 0.1-0.7 0.4-1.4 0.3-0.8 0.7-1.4 0.5-0.6 1-1.2 0.6-0.5 1.2-1 0.6-0.4 1.3-0.7 0.7-0.3 1.5-0.5 0.8-0.2 1.5-0.2zm45.8 23.6q3.1 0 6.1 0.6 3.1 0.6 5.9 1.8 2.9 1.1 5.5 2.9 2.5 1.7 4.7 3.9 2.2 2.2 4 4.8 1.7 2.5 2.9 5.4 1.2 2.9 1.8 6 0.6 3 0.5 6.1v23.5q0 0.8-0.1 1.6-0.1 0.7-0.4 1.5-0.3 0.7-0.7 1.4-0.4 0.7-1 1.3-0.5 0.5-1.2 0.9-0.7 0.4-1.4 0.7-0.8 0.3-1.6 0.4-0.7 0.2-1.5 0.1-0.8 0.1-1.5-0.1-0.8-0.1-1.5-0.4-0.7-0.3-1.4-0.7-0.6-0.4-1.1-0.9-0.6-0.6-1-1.3-0.4-0.7-0.7-1.4-0.3-0.8-0.4-1.5-0.2-0.8-0.1-1.6v-23.5q-0.1-1.5-0.4-3.1-0.4-1.5-1.1-2.9-0.7-1.5-1.6-2.7-1-1.3-2.2-2.3-1-1.1-2.2-2-1.2-0.8-2.6-1.4-1.3-0.6-2.8-1-1.4-0.3-2.9-0.3-1.6-0.1-3.1 0.2-1.6 0.3-3 1-1.5 0.6-2.8 1.5-1.3 0.9-2.4 2-1.1 1.1-1.9 2.4-0.9 1.2-1.5 2.7-0.5 1.4-0.8 2.9-0.3 1.5-0.3 3v23.5q0 0.8-0.1 1.6-0.2 0.8-0.5 1.5-0.3 0.8-0.8 1.4-0.4 0.7-1 1.3-0.5 0.5-1.2 0.9-0.6 0.5-1.3 0.7-0.7 0.3-1.5 0.4-0.7 0.2-1.5 0.1-0.8 0.1-1.5-0.1-0.8-0.1-1.5-0.4-0.7-0.3-1.3-0.7-0.7-0.4-1.2-0.9-0.6-0.6-1-1.3-0.5-0.7-0.8-1.4-0.3-0.7-0.4-1.5-0.1-0.8-0.1-1.6v-23.5c0-4.1 0.8-8.2 2.4-12 1.6-3.9 3.9-7.3 6.8-10.3 2.9-2.9 6.4-5.2 10.2-6.8 3.9-1.6 8-2.4 12.1-2.4zm68.7 0c4.2 0 8.3 0.8 12.1 2.4 3.8 1.6 7.3 3.9 10.2 6.8 3 3 5.3 6.4 6.9 10.3 1.5 3.8 2.4 7.9 2.4 12v23.2c0 4.2-0.8 8.3-2.4 12.1-1.5 3.9-3.9 7.4-6.8 10.3-2.9 2.9-6.4 5.3-10.3 6.8-3.8 1.6-7.9 2.4-12.1 2.4q-1.8 0-3.6-0.2-1.7-0.2-3.5-0.6-1.7-0.4-3.4-1-1.7-0.6-3.3-1.4-1.6-0.8-3-1.8-1.5-0.9-2.8-2-1.4-1.1-2.6-2.3-1.3-1.2-2.4-2.5c-0.7-0.9 0 0 0-0.7q-0.6-0.5-1.1-1.1-0.4-0.6-0.8-1.3-0.3-0.8-0.4-1.5-0.2-0.8-0.1-1.6 0-0.8 0.1-1.5 0.2-0.8 0.5-1.5 0.3-0.7 0.8-1.3 0.4-0.7 1-1.2 0.5-0.6 1.2-1 0.6-0.5 1.3-0.8 0.7-0.3 1.5-0.5 0.7-0.1 1.5-0.1 0.8 0 1.6 0.1 0.8 0.2 1.5 0.5 0.7 0.3 1.4 0.8 0.6 0.4 1.2 1 0.2 0.2 0.4 0.5 0.2 0.3 0.4 0.5 0.2 0.3 0.4 0.6 0.2 0.3 0.3 0.6 1.1 1.3 2.5 2.3 1.4 1.1 2.9 1.8 1.6 0.7 3.3 1.1 1.6 0.4 3.4 0.4c2 0 4.1-0.5 6-1.3 1.9-0.8 3.6-2 5-3.4 1.5-1.5 2.7-3.2 3.5-5.2 0.8-1.9 1.2-3.9 1.2-6v-23.4c0-2.1-0.4-4.1-1.2-6-0.8-1.9-2-3.6-3.5-5.1-1.4-1.5-3.2-2.6-5.1-3.4-1.8-0.8-3.9-1.3-5.9-1.3-2.1 0-4.2 0.4-6.1 1.2-1.9 0.8-3.6 2-5.1 3.4-1.5 1.5-2.6 3.2-3.4 5.1-0.8 2-1.2 4-1.2 6.1q0 1.5 0.3 3.1 0.2 1.5 0.8 2.9 0.6 1.5 1.5 2.8 0.9 1.2 2 2.3 1.1 1.1 2.4 2 1.3 0.8 2.7 1.4 1.5 0.5 3 0.8 1.5 0.3 3.1 0.3 0.7 0 1.5 0.1 0.7 0.2 1.5 0.5 0.7 0.3 1.3 0.7 0.6 0.5 1.2 1c0.7 0.7 1.4 1.6 1.8 2.5 0.4 1 0.6 2 0.6 3.1 0 1-0.2 2.1-0.6 3-0.4 1-1.1 1.9-1.8 2.6q-0.6 0.5-1.2 1-0.6 0.4-1.3 0.7-0.7 0.3-1.5 0.5-0.8 0.1-1.5 0.1-3.2 0-6.2-0.5-3.1-0.6-6-1.8-2.8-1.2-5.4-3-2.6-1.7-4.8-4-2.2-2.1-3.9-4.7-1.7-2.5-2.9-5.4-1.1-2.9-1.7-5.9-0.6-3-0.6-6.1c0-4.2 0.8-8.3 2.4-12.1 1.5-3.8 3.8-7.3 6.8-10.3 2.9-2.9 6.4-5.2 10.2-6.8 3.8-1.6 7.9-2.4 12.1-2.4z"/>
			<path id="Layer" fill-rule="evenodd" class="s0" d="m175.8-0.3c57.3-2.4 44.2 26.6 52.3 70.4 0.4 2.3 1.2 4.6 2.4 6.6 1.1 2.1 2.6 4 4.3 5.6 1.7 1.6 3.6 3 5.8 4 2.1 1 4.4 1.7 6.7 2 5.4 0.9 10.9 1.3 16.5 1.2 5.5-0.1 10.9-0.7 16.3-1.8 5.4-1.1 10.7-2.7 15.8-4.7 5.2-2.1 10.1-4.6 14.7-7.5 10.8-7.8 27.5-26.7-8.2-28.3q-7.8 0-15.5 0.4-7.8 0.5-15.5 1.5-7.8 1-15.4 2.5-7.7 1.4-15.2 3.4c-27.3 5.6 74.6-51.2 90.6-20 16 31.1 7.7 48.7-10.9 57.7q0.8 0.9 1.5 1.9 0.7 1 1.2 2.1 0.6 1.1 1 2.2 0.4 1.2 0.7 2.4c0.8 3 0.9 6.1 0.5 9.2-0.4 3.1-1.4 6.1-2.9 8.8-1.6 2.7-3.6 5-6.1 7-2.4 1.9-5.2 3.3-8.2 4.2q-2.3 0.6-4.6 0.8-2.3 0.2-4.7-0.1-2.3-0.3-4.5-1.1-2.2-0.7-4.3-1.9-2-1.1-3.8-2.6-1.8-1.5-3.2-3.4-1.5-1.8-2.5-3.9-1-2.1-1.6-4.3-0.5-1.6-0.7-3.2-0.2-1.6-0.2-3.3 0-1.6 0.2-3.2 0.2-1.6 0.7-3.2c-7.2 0-13.4-1-20-1q0.5 1.9 0.7 3.8 0.2 2 0.1 3.9-0.1 2-0.6 3.9-0.5 1.9-1.3 3.7c-1.1 2.8-2.9 5.5-5.1 7.7-2.2 2.2-4.8 3.9-7.7 5.1-2.9 1.2-6 1.8-9.1 1.8-3.1 0-6.2-0.6-9.1-1.8q-2.2-0.9-4.1-2.2-2-1.2-3.6-2.9-1.7-1.6-3-3.6-1.2-2-2.1-4.1-1.1-2.2-1.7-4.6-0.6-2.4-0.6-4.9-0.1-2.4 0.4-4.9 0.5-2.4 1.5-4.6 0.3-0.8 0.7-1.6 0.4-0.8 0.8-1.5 0.4-0.8 0.9-1.5 0.4-0.7 1-1.4h-1.8c-37.6-17.6 22-87.8-39.1-76.9-4.9 0.9-14.1-10.7 0-13.5zm53 96.2c-1.3 1-2.4 2.3-3.2 3.7-0.8 1.4-1.3 3-1.5 4.6-0.2 1.6-0.2 3.3 0.2 4.8 0.2 3.9 2.2 7.5 5.3 9.8 3.2 2.3 7.2 3 11 2 3.7-1 6.8-3.7 8.3-7.3 1.6-3.6 1.4-7.7-0.5-11.1-0.4-1.6-1.2-3-2.2-4.3-1-1.3-2.3-2.4-3.7-3.2-1.4-0.8-3-1.3-4.6-1.5-1.6-0.2-3.3-0.1-4.8 0.3-1.6 0.4-3.1 1.2-4.3 2.2zm65.5 0c-1.3 1-2.4 2.3-3.2 3.8-0.8 1.4-1.4 3-1.6 4.7-0.2 1.6-0.1 3.3 0.4 4.9 0.4 1.6 1.2 3.1 2.2 4.4 1 1.3 2.3 2.4 3.8 3.2 1.4 0.8 3 1.4 4.7 1.6 1.6 0.2 3.3 0.1 4.9-0.4 1.6-0.4 3-1.2 4.3-2.2 1.3-1.1 2.4-2.3 3.2-3.8 0.8-1.4 1.3-3 1.5-4.6 0.2-1.6 0.1-3.3-0.3-4.9-0.4-1.6-1.2-3.1-2.2-4.4-1-1.3-2.3-2.4-3.7-3.2-1.4-0.8-3-1.4-4.7-1.6-1.6-0.2-3.3-0.2-4.9 0.3-1.6 0.4-3.1 1.2-4.4 2.2z"/>
			<path id="Layer" fill-rule="evenodd" class="s0" d="m233.7 97.4c1.1-0.3 2.3-0.3 3.5-0.2 1.1 0.2 2.2 0.5 3.3 1.1 1 0.6 1.8 1.4 2.6 2.3 0.7 0.9 1.2 2 1.5 3.1 1 2.3 0.9 5-0.2 7.2-1.1 2.3-3.2 4-5.6 4.7-2.4 0.6-5 0.3-7.1-1.1-2.2-1.4-3.6-3.6-4-6.1q-0.5-1.7-0.3-3.4 0.3-1.7 1.1-3.3 0.8-1.5 2.2-2.6 1.3-1.1 3-1.7z"/>
			<path id="Layer" fill-rule="evenodd" class="s0" d="m269.9 79.1c-40.8 10.6-44.5-16.9-12.8-15q7 0 14-0.4 7-0.4 14-1.2 7-0.8 13.9-2.1 7-1.2 13.8-2.8c15.5-2.9-15 13.9-43.6 20.8z"/>
			<path id="Layer" fill-rule="evenodd" class="s0" d="m299.6 98.2c3.5-1 7.1 0.2 9.4 3.1 2.2 2.8 2.4 6.6 0.7 9.8-1.8 3.1-5.2 4.8-8.8 4.4-3.5-0.4-6.5-3-7.4-6.4-0.3-1.1-0.4-2.3-0.3-3.5 0.2-1.1 0.6-2.2 1.1-3.2 0.6-1 1.4-1.9 2.3-2.6 0.9-0.7 1.9-1.3 3-1.6z"/>
		</g>
	</g>
</svg>