<svg version="1.2" xmlns="http://www.w3.org/2000/svg" viewBox="0 0 100 30" width="100" height="30">
	<title>cash-svg-svg</title>
	<style>
		.s0 { opacity: .8;fill: #ffffff } 
	</style>
	<path id="Layer" fill-rule="evenodd" class="s0" d="m14.3 29.7c-8 0-14.3-5-14.3-12.7 0-10.3 8-17 17-17 7 0 11 3.7 12.7 8l-5.7 2c-1.3-3-4-4.7-7.3-4.7-5.7 0-10.4 4.7-10.4 11 0 4.7 3.4 8 8.4 8 2.3 0 5-1.3 6.6-3.3l5 3.3c-3.3 4-8.3 5.4-12 5.4zm26-21.7c2.7 0 5.4 1 6.7 3.3l0.7-3h5.3l-4.7 21h-5.3l0.3-2.6c-1.6 2-3.6 3-6.3 3-4.7 0-8-3-8-8.7 0-6 4-13 11.3-13zm0.7 4.7c-3.7 0-6 3.6-6 7.3 0 3 2 5 4.7 5 2 0 3.6-1.3 4.6-2.7l1.7-7c-1-1.6-2.7-2.6-5-2.6zm12.3 13.3l3-3.7c1.4 1.4 4.4 3 7.4 3 1.6 0 3-1 3-2 0-3-10.7-2-10.7-8.3 0-3.7 3-7 8.7-7 3.6 0 7 1.3 9 3.3l-3 3.7c-1-1.3-3.7-2.7-6.4-2.7-1.6 0-3 0.7-3 1.7 0 2.7 10.7 2 10.7 8.3 0 4-3.3 7.4-9 7.4-3.7 0-7.3-1.4-9.7-3.7zm35.7 3.3l2.7-12.6c0-0.4 0.3-1 0.3-1.4 0-1.6-1.7-2.6-3.7-2.6-2 0-3.6 1.3-5 2.6l-3 14h-5.6l6.3-29h5.7l-2.4 10.7c1.7-1.3 4-3 7-3 4 0 6.7 2 6.7 5.3 0 0.4-0.3 1.4-0.3 1.7l-3.4 14.3z"/>
</svg>